<svg width="33" height="30" viewBox="0 0 33 30" fill="none" xmlns="http://www.w3.org/2000/svg">
<path d="M20.3434 14.6447C20.1026 14.6447 19.879 14.5785 19.6804 14.472V14.4748C19.6804 14.8536 19.5332 15.2094 19.266 15.4759C18.9988 15.743 18.6433 15.8903 18.2649 15.8903C18.0206 15.8903 17.7942 15.8224 17.5935 15.7131C17.5732 16.0597 17.4347 16.3836 17.1875 16.631C16.9204 16.8982 16.5649 17.0454 16.1862 17.0454C15.4339 17.0454 14.823 16.4541 14.779 15.7129C14.5462 15.8387 14.2831 15.9047 14.0116 15.8872C13.2716 15.8387 12.692 15.1993 12.692 14.4312V8.06456L11.9671 9.32052C11.691 9.8009 11.1741 10.0992 10.6176 10.0992C10.3464 10.0992 10.0785 10.028 9.84128 9.89207C9.54584 9.72079 9.33451 9.44585 9.24663 9.11693C9.15828 8.7878 9.20399 8.44359 9.3748 8.1486C9.37503 8.1486 11.7468 4.0414 11.8915 3.78911C11.9087 3.75118 11.9577 3.64116 11.9994 3.54739C12.0392 3.45786 12.0734 3.36598 12.1061 3.27362C12.8214 1.25434 14.5924 1.13969e-05 16.7283 1.13969e-05C19.502 1.13969e-05 21.7585 2.44691 21.7585 5.4546L21.7588 13.229C21.7588 13.6073 21.6118 13.9628 21.3448 14.2303C21.0777 14.4974 20.7222 14.6447 20.3433 14.6447L20.3434 14.6447ZM16.7283 0.752154C14.893 0.752154 13.4302 1.78882 12.8151 3.52517C12.7757 3.63543 12.7347 3.74568 12.6869 3.85312C12.5481 4.16435 12.5481 4.16435 12.509 4.2091L12.5038 4.20463C12.3102 4.57004 11.7348 5.56638 10.026 8.52503C9.95584 8.64637 9.93723 8.78726 9.97304 8.92201C10.0093 9.05678 10.0963 9.17033 10.2166 9.23983C10.5903 9.45446 11.102 9.31593 11.315 8.94487L12.7425 6.47342C12.8278 6.32617 13.0002 6.25384 13.1656 6.29861C13.3301 6.34266 13.4443 6.4918 13.4443 6.6619V14.4314C13.4443 14.798 13.7209 15.1144 14.0609 15.1368C14.2569 15.1472 14.4398 15.0814 14.5771 14.9443C14.702 14.8194 14.7708 14.6531 14.7708 14.4752V9.39386C14.7708 9.18606 14.9392 9.0176 15.147 9.0176C15.3548 9.0176 15.5233 9.18582 15.5233 9.39386L15.523 15.6302C15.523 15.9959 15.8206 16.2934 16.1862 16.2934C16.3639 16.2934 16.5307 16.2246 16.6558 16.0998C16.7807 15.9747 16.8495 15.8079 16.8495 15.6302V9.39385C16.8495 9.18605 17.0177 9.0176 17.2257 9.0176C17.4335 9.0176 17.602 9.18582 17.602 9.39385L17.6017 14.4168V14.4752C17.6017 14.8406 17.8993 15.1382 18.2652 15.1382C18.4426 15.1382 18.6089 15.0691 18.7347 14.9438C18.8596 14.8192 18.9284 14.6528 18.9284 14.475V9.39359C18.9284 9.18579 19.0966 9.01734 19.3046 9.01734C19.5124 9.01734 19.6809 9.18556 19.6809 9.39359L19.6804 13.2291C19.6804 13.595 19.978 13.8926 20.3434 13.8926C20.5212 13.8926 20.6876 13.8236 20.8124 13.6989C20.9378 13.5736 21.0063 13.4068 21.0063 13.2291L21.0066 5.45478C21.0066 2.86204 19.0874 0.752231 16.7283 0.752231L16.7283 0.752154Z" fill="#4CAF4F"/>
<path d="M5.56096 20.0481L11.0207 16.7728C11.6789 16.3774 12.5259 16.5454 12.9481 17.1554C13.1022 17.3776 13.1809 17.6365 13.1931 17.9001C13.3967 17.7939 13.6181 17.7362 13.8436 17.7362C13.959 17.7362 14.075 17.7505 14.1895 17.779C14.5563 17.8707 14.8654 18.0999 15.0598 18.4241C15.2544 18.7487 15.3112 19.1292 15.2195 19.4956C15.1349 19.8346 14.9288 20.12 14.6421 20.3157C14.8426 20.434 15.0155 20.5954 15.1385 20.8008C15.3331 21.1255 15.3899 21.5058 15.2984 21.8726C15.2068 22.239 14.9776 22.548 14.6529 22.7429L14.651 22.7441C14.848 22.8621 15.0178 23.0219 15.1394 23.2242C15.3343 23.5489 15.391 23.9294 15.2994 24.2962C15.2075 24.6628 14.9783 24.9719 14.6541 25.1665L7.98769 29.1658C6.7435 29.9119 5.30515 30.1695 3.93822 29.8903C2.55904 29.6085 1.41683 28.8157 0.722324 27.658C-0.37676 25.8262 -0.212046 23.662 1.15135 22.0102C1.21379 21.9348 1.27527 21.858 1.33111 21.7784C1.39025 21.6943 1.45928 21.5953 1.48284 21.5614C1.62396 21.3093 3.92672 17.1604 3.92648 17.1609C4.15902 16.7413 4.59487 16.5038 5.04438 16.504C5.25407 16.504 5.46681 16.5556 5.66307 16.6645C5.90009 16.7969 6.09917 16.9898 6.23841 17.2223C6.52466 17.6994 6.53479 18.2965 6.26526 18.7796L5.56096 20.0481ZM5.59371 17.6091C5.52068 17.4873 5.42031 17.3903 5.29756 17.3215C5.04382 17.1811 4.72435 17.2725 4.58466 17.5253C2.93691 20.4938 2.37521 21.5054 2.15845 21.8654L2.16339 21.8666C2.14525 21.9269 2.14525 21.9269 1.94688 22.2104C1.8795 22.3062 1.80623 22.3984 1.73155 22.4891C0.55918 23.9095 0.423054 25.697 1.36707 27.271C1.95183 28.2459 2.91827 28.9143 4.08846 29.1532C5.27138 29.3937 6.51817 29.1699 7.60031 28.5206L14.2673 24.5211C14.4195 24.43 14.5269 24.2851 14.5698 24.1133C14.6127 23.9418 14.5861 23.7635 14.4947 23.6113C14.3067 23.2979 13.8984 23.195 13.585 23.3837L10.2961 25.3568C10.118 25.4638 9.88662 25.4063 9.77989 25.228C9.67293 25.0498 9.73065 24.8187 9.90876 24.7118L13.1979 22.7386L14.2661 22.0978C14.4183 22.0064 14.526 21.8615 14.5689 21.6902C14.6118 21.5185 14.5851 21.3399 14.4937 21.1879C14.3055 20.8743 13.8972 20.7723 13.5841 20.9603L9.22671 23.5743C9.04813 23.6815 8.81747 23.6235 8.71051 23.4454C8.60355 23.2673 8.66151 23.0362 8.83938 22.9292L14.1872 19.7211C14.3394 19.6297 14.4469 19.485 14.4897 19.3133C14.5326 19.1418 14.506 18.9634 14.4148 18.8112C14.3236 18.6593 14.1787 18.5518 14.007 18.509C13.8343 18.4661 13.6567 18.4927 13.5049 18.5837L12.515 19.1776C12.5147 19.1776 12.5147 19.1778 12.5145 19.1778H12.5142L8.15711 21.7918C7.97853 21.8992 7.74764 21.8413 7.64092 21.6629C7.53396 21.4848 7.59191 21.2537 7.76979 21.1467L12.1272 18.5328C12.2794 18.4414 12.387 18.2965 12.4299 18.1252C12.477 17.9372 12.4412 17.7449 12.3295 17.5838C12.1359 17.3037 11.7217 17.2292 11.4077 17.4179L4.74547 21.4146C4.59964 21.5018 4.41281 21.4806 4.29053 21.3626C4.16802 21.2443 4.14045 21.0584 4.22291 20.9097L5.60824 18.4138C5.74725 18.1643 5.74183 17.8561 5.59364 17.6092L5.59371 17.6091Z" fill="#4CAF4F"/>
<path d="M31.6501 27.6577C30.9558 28.8157 29.8139 29.6082 28.4344 29.89C27.0673 30.1687 25.6294 29.9117 24.385 29.1655L17.718 25.1661C17.3935 24.9715 17.1641 24.6624 17.0722 24.2953C16.981 23.9289 17.038 23.5484 17.2324 23.2242C17.3537 23.0216 17.5238 22.8619 17.721 22.7438L17.7191 22.7427C17.3947 22.5481 17.1652 22.239 17.0738 21.8723C16.982 21.5058 17.039 21.125 17.2336 20.8004C17.3589 20.5919 17.5307 20.4289 17.7267 20.3132C17.4421 20.1174 17.2371 19.833 17.1528 19.4956C17.0609 19.1288 17.1179 18.7483 17.3125 18.4241C17.5069 18.0997 17.8162 17.8705 18.1828 17.7788C18.2973 17.7501 18.4135 17.736 18.5284 17.736C18.7541 17.7362 18.9756 17.7934 19.1792 17.8999C19.1916 17.6363 19.2701 17.3774 19.4242 17.1552C19.8466 16.5457 20.6929 16.377 21.3521 16.7726L26.8116 20.0474L26.1079 18.7799C25.8379 18.2959 25.8478 17.6989 26.134 17.2216C26.2735 16.9893 26.4728 16.7963 26.711 16.6628C26.9068 16.5544 27.1188 16.503 27.328 16.503C27.7773 16.5033 28.2137 16.7403 28.4459 17.1599C29.2554 18.6185 30.7831 21.3693 30.8905 21.5614C30.9133 21.5946 30.9824 21.6935 31.0415 21.7776C31.0978 21.8575 31.1586 21.9338 31.2215 22.0097C32.5847 23.6622 32.7491 25.8261 31.65 27.6577L31.6501 27.6577ZM30.641 22.4892C30.5661 22.3985 30.4926 22.3059 30.4257 22.2105C30.2222 21.9216 30.217 21.9141 30.2017 21.8385C29.9637 21.4448 29.3832 20.3997 27.7875 17.5249C27.6476 17.2725 27.3295 17.1804 27.0762 17.3204C26.9516 17.3901 26.8515 17.4874 26.7784 17.6092C26.6305 17.8559 26.6248 18.1641 26.7645 18.4143L28.1494 20.9095C28.2321 21.0584 28.2045 21.244 28.0822 21.3623C27.9602 21.4808 27.7736 21.5015 27.6271 21.4144L20.9649 17.4177C20.6508 17.2294 20.2369 17.3032 20.0428 17.5835C19.9311 17.7447 19.8955 17.9369 19.9422 18.1247C19.985 18.2962 20.0927 18.4409 20.2451 18.5323C20.2456 18.5325 20.2458 18.533 20.2463 18.5332L24.6023 21.1465C24.7804 21.2534 24.8381 21.4843 24.7312 21.6627C24.6242 21.8405 24.3936 21.8987 24.215 21.7915L18.8671 18.5834C18.7154 18.4925 18.5368 18.4656 18.3653 18.5087C18.1933 18.5516 18.0487 18.6591 17.9575 18.8115C17.8661 18.9634 17.8397 19.1418 17.8821 19.3133C17.925 19.4848 18.0327 19.6297 18.1848 19.7211L19.2255 20.3452L23.5324 22.9293C23.7106 23.0363 23.7683 23.2671 23.6613 23.4455C23.5544 23.6234 23.3237 23.6813 23.1451 23.5744L18.7882 20.9604C18.4749 20.7719 18.0668 20.8742 17.8783 21.188C17.7869 21.3402 17.7605 21.5185 17.803 21.69C17.8458 21.8616 17.9535 22.0062 18.1059 22.0979L19.1741 22.7387L22.4628 24.7118C22.6409 24.8188 22.6987 25.0497 22.5917 25.228C22.4847 25.4059 22.2541 25.4643 22.0755 25.3569L18.7868 23.3838C18.6351 23.2928 18.4572 23.266 18.2848 23.3091C18.1132 23.3519 17.9681 23.4594 17.8769 23.6113C17.7858 23.7635 17.7591 23.9421 17.8015 24.1134C17.8444 24.2849 17.9521 24.4296 18.1045 24.5212L24.7715 28.5207C25.8534 29.1698 27.1011 29.3945 28.2834 29.1533C29.4533 28.9144 30.4198 28.246 31.0045 27.2711C31.9495 25.6968 31.8136 23.9091 30.6415 22.4891L30.641 22.4892Z" fill="#4CAF4F"/>
</svg>
