<svg width="60" height="49" viewBox="0 0 60 49" fill="none" xmlns="http://www.w3.org/2000/svg">
<path d="M59.5 31C59.5 40.9411 51.4411 49 41.5 49L14.5 49C11.7386 49 9.5 46.7614 9.5 44L9.5 10C9.5 4.47715 13.9772 -1.65037e-07 19.5 3.17786e-07L54.5 3.37758e-06C57.2614 3.61899e-06 59.5 2.23858 59.5 5L59.5 31Z" fill="#E8F5E9"/>
<path d="M21.4164 12.0109C21.1044 12.0109 20.8507 11.7576 20.8507 11.4452V10.4839C20.8507 10.1719 21.104 9.91821 21.4164 9.91821C21.7284 9.91821 21.9821 10.1715 21.9821 10.4839V11.4452C21.9821 11.7576 21.7284 12.0109 21.4164 12.0109Z" fill="#103E13"/>
<path d="M19.0381 12.0109C18.7261 12.0109 18.4724 11.7576 18.4724 11.4452V10.4839C18.4724 10.1719 18.7257 9.91821 19.0381 9.91821C19.3501 9.91821 19.6038 10.1715 19.6038 10.4839V11.4452C19.6034 11.7576 19.3505 12.0109 19.0381 12.0109Z" fill="#103E13"/>
<path d="M16.66 12.0109C16.348 12.0109 16.0944 11.7576 16.0944 11.4452V10.4839C16.0944 10.1719 16.3476 9.91821 16.66 9.91821C16.9721 9.91821 17.2257 10.1715 17.2257 10.4839V11.4452C17.2257 11.7576 16.9725 12.0109 16.66 12.0109Z" fill="#103E13"/>
<path d="M21.4164 15.942C21.1044 15.942 20.8507 15.6888 20.8507 15.3763V14.4154C20.8507 14.1034 21.104 13.8497 21.4164 13.8497C21.7284 13.8497 21.9821 14.103 21.9821 14.4154V15.3763C21.9821 15.6888 21.7284 15.942 21.4164 15.942Z" fill="#103E13"/>
<path d="M19.0381 15.942C18.7261 15.942 18.4724 15.6888 18.4724 15.3763V14.4154C18.4724 14.1034 18.7257 13.8497 19.0381 13.8497C19.3501 13.8497 19.6038 14.103 19.6038 14.4154V15.3763C19.6034 15.6888 19.3505 15.942 19.0381 15.942Z" fill="#103E13"/>
<path d="M16.66 15.942C16.348 15.942 16.0944 15.6888 16.0944 15.3763V14.4154C16.0944 14.1034 16.3476 13.8497 16.66 13.8497C16.9721 13.8497 17.2257 14.103 17.2257 14.4154V15.3763C17.2257 15.6888 16.9725 15.942 16.66 15.942Z" fill="#103E13"/>
<path d="M21.4164 19.8733C21.1044 19.8733 20.8507 19.6201 20.8507 19.3076V18.3463C20.8507 18.0343 21.104 17.7806 21.4164 17.7806C21.7284 17.7806 21.9821 18.0339 21.9821 18.3463V19.3076C21.9821 19.6201 21.7284 19.8733 21.4164 19.8733Z" fill="#103E13"/>
<path d="M19.0381 19.8733C18.7261 19.8733 18.4724 19.6201 18.4724 19.3076V18.3463C18.4724 18.0343 18.7257 17.7806 19.0381 17.7806C19.3501 17.7806 19.6038 18.0339 19.6038 18.3463V19.3076C19.6034 19.6201 19.3505 19.8733 19.0381 19.8733Z" fill="#103E13"/>
<path d="M16.66 19.8733C16.348 19.8733 16.0944 19.6201 16.0944 19.3076V18.3463C16.0944 18.0343 16.3476 17.7806 16.66 17.7806C16.9721 17.7806 17.2257 18.0339 17.2257 18.3463V19.3076C17.2257 19.6201 16.9725 19.8733 16.66 19.8733Z" fill="#103E13"/>
<path d="M21.4164 23.8037C21.1044 23.8037 20.8507 23.5505 20.8507 23.2381V22.2767C20.8507 21.9647 21.104 21.7111 21.4164 21.7111C21.7284 21.7111 21.9821 21.9643 21.9821 22.2767V23.2381C21.9821 23.5505 21.7284 23.8037 21.4164 23.8037Z" fill="#103E13"/>
<path d="M19.0381 23.8037C18.7261 23.8037 18.4724 23.5505 18.4724 23.2381V22.2767C18.4724 21.9647 18.7257 21.7111 19.0381 21.7111C19.3501 21.7111 19.6038 21.9643 19.6038 22.2767V23.2381C19.6034 23.5505 19.3505 23.8037 19.0381 23.8037Z" fill="#103E13"/>
<path d="M16.66 23.8037C16.348 23.8037 16.0944 23.5505 16.0944 23.2381V22.2767C16.0944 21.9647 16.3476 21.7111 16.66 21.7111C16.9721 21.7111 17.2257 21.9643 17.2257 22.2767V23.2381C17.2257 23.5505 16.9725 23.8037 16.66 23.8037Z" fill="#103E13"/>
<path d="M21.4164 27.735C21.1044 27.735 20.8507 27.4817 20.8507 27.1693V26.2084C20.8507 25.8964 21.104 25.6427 21.4164 25.6427C21.7284 25.6427 21.9821 25.896 21.9821 26.2084V27.1693C21.9821 27.4813 21.7284 27.735 21.4164 27.735Z" fill="#103E13"/>
<path d="M19.0381 27.735C18.7261 27.735 18.4724 27.4817 18.4724 27.1693V26.2084C18.4724 25.8964 18.7257 25.6427 19.0381 25.6427C19.3501 25.6427 19.6038 25.896 19.6038 26.2084V27.1693C19.6034 27.4813 19.3505 27.735 19.0381 27.735Z" fill="#103E13"/>
<path d="M16.66 27.735C16.348 27.735 16.0944 27.4817 16.0944 27.1693L16.0948 26.2084C16.0948 25.8964 16.348 25.6427 16.6604 25.6427C16.9725 25.6427 17.2261 25.896 17.2261 26.2084V27.1693C17.2257 27.4813 16.9725 27.735 16.66 27.735Z" fill="#103E13"/>
<path d="M0.500475 31.6471C0.500475 31.9592 0.753724 32.2128 1.06615 32.2128H35.5139C35.8259 32.2128 36.0796 31.9596 36.0796 31.6471C36.0796 31.3351 35.8263 31.0815 35.5139 31.0815H34.4682V14.8402C34.4682 14.5281 34.215 14.2745 33.9025 14.2745L24.6668 14.2749V2.56576C24.6668 2.36774 24.5635 2.18471 24.3946 2.08214C24.2262 1.97919 24.0156 1.97287 23.8404 2.06399L13.3401 7.53098C13.1527 7.62841 13.0359 7.8217 13.0359 8.03275V18.2604H2.87388C2.56186 18.2604 2.3082 18.5137 2.3082 18.8261V31.0816H1.06489C0.752866 31.0812 0.5 31.3344 0.5 31.6468L0.500475 31.6471ZM24.667 22.8422H33.3374V31.0819L24.667 31.0815V22.8422ZM24.667 18.9113H33.3374V21.7113L24.667 21.7109V18.9113ZM24.667 15.4056H33.3374V17.7808H24.667V15.4056ZM14.1667 8.37622L23.5353 3.49818V31.081H14.1667V8.37622ZM6.23588 26.5635C6.23588 25.3895 7.16603 24.4341 8.30959 24.4341C9.45314 24.4341 10.3837 25.3891 10.3837 26.5635V31.0817H6.23588V26.5635ZM3.43952 19.3916H13.0358V31.0815H11.515V26.5633C11.515 24.7657 10.0776 23.303 8.30959 23.303C6.54236 23.303 5.10495 24.7653 5.10495 26.5633V31.0815H3.43952V19.3916Z" fill="#103E13"/>
</svg>
