<svg width="58" height="49" viewBox="0 0 58 49" fill="none" xmlns="http://www.w3.org/2000/svg">
<path d="M58 31C58 40.9411 49.9411 49 40 49L13 49C10.2386 49 8 46.7614 8 44L8 10C8 4.47715 12.4772 -1.65037e-07 18 3.17786e-07L53 3.37758e-06C55.7614 3.61899e-06 58 2.23858 58 5L58 31Z" fill="#E8F5E9"/>
<path d="M21.3117 16.6446C21.0709 16.6446 20.8473 16.5784 20.6487 16.4719V16.4748C20.6487 16.8536 20.5014 17.2094 20.2343 17.4758C19.9671 17.743 19.6116 17.8903 19.2332 17.8903C18.9889 17.8903 18.7625 17.8224 18.5617 17.7131C18.5415 18.0597 18.4029 18.3836 18.1558 18.631C17.8886 18.8982 17.5331 19.0454 17.1545 19.0454C16.4022 19.0454 15.7913 18.4541 15.7473 17.7129C15.5145 17.8387 15.2513 17.9046 14.9799 17.8872C14.2398 17.8387 13.6603 17.1993 13.6603 16.4312V10.0645L12.9353 11.3205C12.6592 11.8009 12.1423 12.0991 11.5858 12.0991C11.3147 12.0991 11.0468 12.028 10.8095 11.892C10.5141 11.7208 10.3028 11.4458 10.2149 11.1169C10.1265 10.7878 10.1722 10.4436 10.3431 10.1486C10.3433 10.1486 12.715 6.04137 12.8597 5.78908C12.8769 5.75115 12.9259 5.64113 12.9676 5.54736C13.0075 5.45783 13.0416 5.36595 13.0744 5.27359C13.7896 3.25431 15.5607 1.99998 17.6966 1.99998C20.4703 1.99998 22.7268 4.44688 22.7268 7.45457L22.727 15.2289C22.727 15.6073 22.58 15.9628 22.3131 16.2302C22.0459 16.4974 21.6904 16.6447 21.3116 16.6447L21.3117 16.6446ZM17.6966 2.75212C15.8613 2.75212 14.3984 3.78878 13.7833 5.52514C13.744 5.6354 13.703 5.74565 13.6552 5.85309C13.5164 6.16432 13.5164 6.16432 13.4773 6.20907L13.4721 6.2046C13.2784 6.57001 12.7031 7.56635 10.9943 10.525C10.9241 10.6463 10.9055 10.7872 10.9413 10.922C10.9776 11.0567 11.0645 11.1703 11.1849 11.2398C11.5586 11.4544 12.0703 11.3159 12.2833 10.9448L13.7108 8.47339C13.7961 8.32614 13.9685 8.25381 14.1339 8.29858C14.2983 8.34263 14.4126 8.49177 14.4126 8.66187V16.4314C14.4126 16.798 14.6892 17.1144 15.0292 17.1368C15.2252 17.1471 15.408 17.0814 15.5454 16.9443C15.6702 16.8194 15.739 16.6531 15.739 16.4752V11.3938C15.739 11.186 15.9075 11.0176 16.1153 11.0176C16.3231 11.0176 16.4915 11.1858 16.4915 11.3938L16.4913 17.6302C16.4913 17.9958 16.7889 18.2934 17.1545 18.2934C17.3321 18.2934 17.499 18.2246 17.6241 18.0997C17.7489 17.9746 17.8177 17.8078 17.8177 17.6302V11.3938C17.8177 11.186 17.9859 11.0176 18.194 11.0176C18.4018 11.0176 18.5702 11.1858 18.5702 11.3938L18.57 16.4168V16.4752C18.57 16.8406 18.8675 17.1381 19.2334 17.1381C19.4108 17.1381 19.5772 17.0691 19.703 16.9438C19.8278 16.8191 19.8966 16.6528 19.8966 16.4749V11.3936C19.8966 11.1858 20.0649 11.0173 20.2729 11.0173C20.4807 11.0173 20.6491 11.1855 20.6491 11.3936L20.6487 15.2291C20.6487 15.595 20.9462 15.8925 21.3116 15.8925C21.4895 15.8925 21.6558 15.8235 21.7807 15.6989C21.906 15.5736 21.9746 15.4067 21.9746 15.2291L21.9748 7.45475C21.9748 4.86201 20.0557 2.7522 17.6966 2.7522L17.6966 2.75212Z" fill="#103E13"/>
<path d="M6.5291 22.048L11.9888 18.7727C12.6471 18.3774 13.4941 18.5454 13.9162 19.1553C14.0703 19.3775 14.149 19.6364 14.1613 19.9001C14.3648 19.7938 14.5863 19.7361 14.8117 19.7361C14.9272 19.7361 15.0431 19.7505 15.1576 19.779C15.5244 19.8706 15.8335 20.0999 16.0279 20.424C16.2225 20.7487 16.2793 21.1291 16.1877 21.4955C16.1031 21.8346 15.8969 22.1199 15.6102 22.3157C15.8107 22.4339 15.9836 22.5953 16.1066 22.8008C16.3012 23.1254 16.358 23.5057 16.2666 23.8725C16.1749 24.2389 15.9457 24.548 15.621 24.7429L15.6192 24.744C15.8161 24.8621 15.986 25.0218 16.1076 25.2242C16.3024 25.5488 16.3592 25.9293 16.2675 26.2961C16.1756 26.6627 15.9464 26.9718 15.6222 27.1664L8.95583 31.1657C7.71164 31.9119 6.27329 32.1694 4.90636 31.8902C3.52718 31.6084 2.38497 30.8157 1.69046 29.6579C0.591379 27.8261 0.756094 25.6619 2.11949 24.0101C2.18192 23.9347 2.24341 23.8579 2.29925 23.7783C2.35839 23.6942 2.42742 23.5952 2.45098 23.5613C2.5921 23.3092 4.89486 19.1603 4.89462 19.1608C5.12716 18.7412 5.56301 18.5037 6.01252 18.5039C6.22221 18.5039 6.43495 18.5555 6.63121 18.6644C6.86823 18.7968 7.06731 18.9898 7.20655 19.2223C7.4928 19.6994 7.50293 20.2964 7.2334 20.7796L6.5291 22.048ZM6.56185 19.6091C6.48882 19.4873 6.38845 19.3902 6.2657 19.3214C6.01196 19.181 5.69249 19.2724 5.5528 19.5252C3.90505 22.4937 3.34335 23.5054 3.12659 23.8654L3.13153 23.8666C3.11339 23.9269 3.11339 23.9269 2.91502 24.2103C2.84764 24.3062 2.77437 24.3983 2.69969 24.489C1.52732 25.9094 1.39119 27.6969 2.33521 29.2709C2.91997 30.2458 3.8864 30.9142 5.0566 31.1531C6.23952 31.3937 7.48631 31.1699 8.56845 30.5206L15.2355 26.5211C15.3876 26.4299 15.4951 26.285 15.538 26.1133C15.5808 25.9417 15.5542 25.7634 15.4628 25.6112C15.2748 25.2979 14.8665 25.1949 14.5532 25.3836L11.2642 27.3568C11.0861 27.4637 10.8548 27.4062 10.748 27.2279C10.6411 27.0498 10.6988 26.8187 10.8769 26.7117L14.1661 24.7386L15.2343 24.0977C15.3865 24.0063 15.4941 23.8614 15.537 23.6901C15.5799 23.5184 15.5533 23.3398 15.4619 23.1878C15.2736 22.8743 14.8653 22.7723 14.5522 22.9603L10.1948 25.5742C10.0163 25.6814 9.78561 25.6235 9.67865 25.4454C9.57169 25.2673 9.62965 25.0361 9.80752 24.9292L15.1554 21.7211C15.3076 21.6296 15.415 21.485 15.4579 21.3132C15.5007 21.1417 15.4741 20.9634 15.3829 20.8112C15.2918 20.6592 15.1469 20.5518 14.9751 20.5089C14.8024 20.466 14.6248 20.4927 14.4731 20.5836L13.4831 21.1775C13.4829 21.1775 13.4829 21.1778 13.4826 21.1778H13.4824L9.12525 23.7917C8.94667 23.8992 8.71578 23.8412 8.60905 23.6629C8.5021 23.4848 8.56005 23.2536 8.73793 23.1467L13.0953 20.5327C13.2475 20.4413 13.3552 20.2964 13.398 20.1251C13.4452 19.9371 13.4094 19.7449 13.2977 19.5837C13.104 19.3036 12.6898 19.2291 12.3758 19.4179L5.71361 23.4146C5.56778 23.5017 5.38095 23.4805 5.25867 23.3625C5.13616 23.2442 5.10859 23.0583 5.19105 22.9097L6.57638 20.4137C6.71539 20.1642 6.70997 19.8561 6.56178 19.6092L6.56185 19.6091Z" fill="#103E13"/>
<path d="M32.6181 29.6577C31.9238 30.8157 30.7819 31.6083 29.4025 31.8901C28.0353 32.1688 26.5974 31.9117 25.353 31.1656L18.686 27.1661C18.3616 26.9715 18.1321 26.6624 18.0402 26.2953C17.949 25.9289 18.006 25.5484 18.2004 25.2243C18.3217 25.0216 18.4918 24.8619 18.689 24.7439L18.6871 24.7427C18.3627 24.5481 18.1333 24.239 18.0419 23.8724C17.95 23.5058 18.007 23.125 18.2016 22.8004C18.3269 22.5919 18.4987 22.4289 18.6947 22.3132C18.4101 22.1174 18.2051 21.8331 18.1208 21.4957C18.0289 21.1288 18.0859 20.7483 18.2805 20.4242C18.4749 20.0997 18.7842 19.8705 19.1508 19.7789C19.2653 19.7501 19.3815 19.736 19.4965 19.736C19.7222 19.7362 19.9436 19.7935 20.1472 19.9C20.1597 19.6363 20.2381 19.3774 20.3922 19.1552C20.8146 18.5458 21.6609 18.3771 22.3201 18.7726L27.7796 22.0474L27.0759 20.7799C26.8059 20.296 26.8158 19.699 27.1021 19.2216C27.2415 18.9893 27.4408 18.7964 27.679 18.6628C27.8748 18.5544 28.0869 18.5031 28.296 18.5031C28.7453 18.5033 29.1817 18.7403 29.4139 19.1599C30.2235 20.6185 31.7511 23.3694 31.8585 23.5614C31.8813 23.5946 31.9504 23.6936 32.0095 23.7777C32.0658 23.8575 32.1266 23.9339 32.1895 24.0097C33.5527 25.6622 33.7171 27.8262 32.6181 29.6578L32.6181 29.6577ZM31.6091 24.4892C31.5341 24.3985 31.4606 24.3059 31.3937 24.2105C31.1902 23.9217 31.185 23.9141 31.1697 23.8385C30.9317 23.4448 30.3512 22.3997 28.7555 19.5249C28.6156 19.2726 28.2975 19.1805 28.0443 19.3204C27.9196 19.3901 27.8195 19.4874 27.7465 19.6093C27.5985 19.8559 27.5928 20.1641 27.7326 20.4143L29.1174 22.9095C29.2001 23.0584 29.1725 23.2441 29.0503 23.3623C28.9282 23.4808 28.7416 23.5016 28.5951 23.4144L21.9329 19.4177C21.6189 19.2295 21.2049 19.3032 21.0108 19.5836C20.8991 19.7447 20.8635 19.937 20.9102 20.1247C20.9531 20.2963 21.0607 20.4409 21.2132 20.5323C21.2136 20.5326 21.2139 20.533 21.2143 20.5333L25.5703 23.1465C25.7484 23.2535 25.8062 23.4844 25.6992 23.6627C25.5922 23.8406 25.3616 23.8988 25.183 23.7916L19.8352 20.5835C19.6834 20.4925 19.5048 20.4657 19.3333 20.5088C19.1613 20.5517 19.0167 20.6591 18.9255 20.8115C18.8341 20.9635 18.8077 21.1418 18.8501 21.3133C18.893 21.4849 19.0007 21.6297 19.1529 21.7212L20.1935 22.3453L24.5005 24.9293C24.6786 25.0363 24.7363 25.2672 24.6293 25.4455C24.5224 25.6234 24.2917 25.6814 24.1131 25.5744L19.7562 22.9604C19.4429 22.7719 19.0348 22.8742 18.8464 23.188C18.755 23.3402 18.7286 23.5186 18.771 23.6901C18.8139 23.8616 18.9215 24.0062 19.0739 24.0979L20.1422 24.7387L23.4308 26.7119C23.609 26.8188 23.6667 27.0497 23.5597 27.2281C23.4528 27.4059 23.2221 27.4644 23.0435 27.3569L19.7548 25.3838C19.6031 25.2928 19.4252 25.266 19.2528 25.3091C19.0813 25.352 18.9361 25.4594 18.845 25.6114C18.7538 25.7636 18.7272 25.9421 18.7696 26.1134C18.8124 26.2849 18.9201 26.4296 19.0725 26.5212L25.7395 30.5207C26.8214 31.1698 28.0691 31.3945 29.2514 31.1533C30.4213 30.9144 31.3878 30.246 31.9725 29.2711C32.9175 27.6968 32.7816 25.9091 31.6095 24.4892L31.6091 24.4892Z" fill="#103E13"/>
</svg>
